<?xml version="1.0" standalone="no"?>
<!DOCTYPE svg PUBLIC "-//W3C//DTD SVG 20010904//EN"
 "http://www.w3.org/TR/2001/REC-SVG-20010904/DTD/svg10.dtd">
<svg version="1.0" xmlns="http://www.w3.org/2000/svg"
 width="162.000000pt" height="162.000000pt" viewBox="0 0 162.000000 162.000000"
 preserveAspectRatio="xMidYMid meet">

<g transform="translate(0.000000,162.000000) scale(0.100000,-0.100000)"
fill="#000000" stroke="none">
<path d="M0 810 l0 -810 810 0 810 0 0 810 0 810 -810 0 -810 0 0 -810z m838
519 c1 -8 -2 -28 -7 -42 -15 -40 -56 -37 -70 4 -18 52 -15 57 31 56 30 -2 44
-7 46 -18z m-131 -5 c3 -9 1 -19 -6 -23 -6 -4 -10 -18 -9 -31 5 -42 -29 -37
-47 6 -16 39 -13 49 20 57 34 8 35 8 42 -9z m227 10 c11 -4 16 -19 16 -45 0
-38 -1 -39 -34 -39 -47 0 -62 20 -45 60 14 29 31 36 63 24z m136 -34 c23 -23
25 -36 8 -47 -7 -4 -13 -15 -13 -23 0 -19 -51 -26 -71 -9 -31 25 -1 99 41 99
8 0 24 -9 35 -20z m-460 -31 c0 -10 5 -21 10 -24 14 -9 -4 -32 -32 -41 -23 -7
-58 21 -58 47 0 23 36 48 61 42 10 -3 19 -14 19 -24z m530 -68 c-19 -23 -37
-41 -42 -41 -23 0 -17 33 12 71 29 36 35 39 48 26 13 -13 11 -20 -18 -56z
m-650 20 c0 -5 9 -11 20 -14 28 -7 25 -43 -5 -63 -24 -15 -26 -15 -50 7 -29
28 -30 36 -8 61 17 19 43 24 43 9z m745 -21 c3 -5 -13 -28 -35 -50 -39 -39
-60 -44 -60 -14 0 16 59 73 77 74 6 0 14 -4 18 -10z m-801 -74 c25 -21 27 -25
14 -45 -17 -27 -42 -35 -68 -21 -25 14 -27 65 -2 79 24 14 25 14 56 -13z m834
-18 c19 -19 14 -44 -14 -63 -29 -19 -48 -15 -63 13 -22 40 44 83 77 50z m-923
-68 c3 -5 15 -10 26 -10 23 0 36 -27 20 -43 -6 -6 -11 -19 -11 -29 0 -21 -22
-23 -69 -7 -37 13 -42 48 -11 79 22 22 36 25 45 10z m995 -30 c0 -11 -4 -20
-9 -20 -4 0 -6 -11 -3 -25 3 -18 0 -25 -12 -25 -9 0 -25 -5 -36 -12 -20 -13
-30 -9 -34 14 -2 7 -6 21 -11 31 -9 22 -3 28 38 44 49 18 67 16 67 -7z m-996
-172 c13 -19 14 -25 2 -43 -17 -26 -49 -31 -70 -10 -20 21 -20 39 0 59 22 22
50 20 68 -6z m1000 6 c20 -20 20 -38 0 -59 -21 -21 -53 -16 -70 10 -12 18 -11
24 2 43 18 26 46 28 68 6z m-59 -144 c3 -5 17 -10 31 -10 17 0 24 -5 24 -19 0
-11 -5 -23 -10 -26 -6 -4 -8 -11 -4 -16 3 -5 1 -16 -6 -24 -9 -11 -19 -11 -63
4 -55 19 -75 48 -39 58 11 3 22 13 25 24 5 20 32 26 42 9z m-879 -35 c18 -44
5 -75 -31 -75 -14 0 -25 -4 -25 -10 0 -5 -9 -10 -20 -10 -18 0 -25 11 -21 33
1 4 -6 15 -14 24 -21 21 -15 35 26 55 52 26 68 23 85 -17z m859 -87 c29 -25
31 -35 8 -60 -20 -22 -51 -23 -75 -1 -20 18 -23 36 -8 64 14 25 44 24 75 -3z
m-815 -27 c17 -34 11 -51 -25 -68 -33 -16 -36 -15 -55 2 -11 10 -20 26 -20 36
0 45 79 69 100 30z m724 -43 c43 -32 57 -60 36 -73 -21 -13 -113 67 -104 90 9
21 18 19 68 -17z m-650 -37 c16 -17 16 -20 -1 -49 -22 -39 -33 -44 -64 -28
-30 15 -35 38 -13 70 19 31 54 34 78 7z m609 -23 c33 -37 35 -44 22 -57 -13
-13 -18 -12 -46 14 -37 36 -52 62 -44 75 12 19 32 10 68 -32z m-75 -10 c7 -7
12 -18 12 -26 0 -8 8 -21 18 -28 16 -13 15 -16 -11 -39 -34 -31 -54 -31 -84
-3 -30 28 -29 62 3 87 30 24 45 26 62 9z m-438 -28 c24 -24 25 -33 5 -50 -8
-7 -15 -19 -15 -26 0 -19 -40 -18 -62 3 -25 22 -23 59 4 77 30 21 44 20 68 -4z
m115 -39 c6 -3 34 -5 64 -4 l53 2 -5 -35 c-12 -75 -59 -88 -84 -24 -11 28 -21
39 -31 35 -7 -3 -18 -5 -23 -5 -5 0 -14 -11 -19 -25 -9 -25 -34 -33 -45 -16
-3 6 -2 28 1 51 7 40 7 40 43 34 20 -4 41 -9 46 -13z m226 -31 c7 -22 10 -42
8 -45 -3 -2 -25 -5 -49 -7 -45 -3 -45 -3 -47 32 -2 52 3 60 41 60 32 0 36 -3
47 -40z"/>
</g>
</svg>
